<svg xmlns="http://www.w3.org/2000/svg" xmlns:xlink="http://www.w3.org/1999/xlink" viewBox="0,0,256,256" width="48px" height="48px" fill-rule="nonzero"><g fill="#ffc041" fill-rule="nonzero" stroke="none" stroke-width="1" stroke-linecap="butt" stroke-linejoin="miter" stroke-miterlimit="10" stroke-dasharray="" stroke-dashoffset="0" font-family="none" font-weight="none" font-size="none" text-anchor="none" style="mix-blend-mode: normal"><g transform="scale(5.33333,5.33333)"><path d="M29.93,4.89c-0.43,2.89 -2.92,5.11 -5.93,5.11c-3.01,0 -5.5,-2.22 -5.93,-5.11c1.88,-0.58 3.87,-0.89 5.93,-0.89c2.06,0 4.05,0.31 5.93,0.89z"></path><path d="M14.1,14.1c-2.12,2.12 -5.45,2.32 -7.79,0.58c1.87,-3.57 4.8,-6.5 8.37,-8.37c1.74,2.34 1.54,5.67 -0.58,7.79z"></path><path d="M10,24c0,3.01 -2.22,5.5 -5.11,5.93c-0.58,-1.88 -0.89,-3.87 -0.89,-5.93c0,-2.06 0.31,-4.05 0.89,-5.93c2.89,0.43 5.11,2.92 5.11,5.93z"></path><path d="M14.68,41.69c-3.57,-1.87 -6.5,-4.8 -8.37,-8.37c2.34,-1.74 5.67,-1.54 7.79,0.58c2.12,2.12 2.32,5.45 0.58,7.79z"></path><path d="M29.93,43.11c-1.88,0.58 -3.87,0.89 -5.93,0.89c-2.06,0 -4.05,-0.31 -5.93,-0.89c0.43,-2.89 2.92,-5.11 5.93,-5.11c3.01,0 5.5,2.22 5.93,5.11z"></path><path d="M41.69,33.32c-1.87,3.57 -4.8,6.5 -8.37,8.37c-1.74,-2.34 -1.54,-5.67 0.58,-7.79c2.12,-2.12 5.45,-2.32 7.79,-0.58z"></path><path d="M44,24c0,2.06 -0.31,4.05 -0.89,5.93c-2.89,-0.43 -5.11,-2.92 -5.11,-5.93c0,-3.01 2.22,-5.5 5.11,-5.93c0.58,1.88 0.89,3.87 0.89,5.93z"></path><path d="M41.69,14.68c-2.34,1.74 -5.67,1.54 -7.79,-0.58c-2.12,-2.12 -2.32,-5.45 -0.58,-7.79c3.57,1.87 6.5,4.8 8.37,8.37z"></path><circle cx="24" cy="14" r="2"></circle><circle cx="16.929" cy="16.929" r="2"></circle><circle cx="14" cy="24" r="2"></circle><circle cx="16.929" cy="31.071" r="2"></circle><circle cx="24" cy="34" r="2"></circle><circle cx="31.071" cy="31.071" r="2"></circle><circle cx="34" cy="24" r="2"></circle><circle cx="31.071" cy="16.929" r="2"></circle></g></g></svg>