<?xml version="1.0"?><svg xmlns="http://www.w3.org/2000/svg"  viewBox="0 0 30 30" width="30px" height="30px">    <path d="M16.5,21c1.301,0,2.5,1.199,2.5,2.5S17.801,26,16.5,26S14,24.801,14,23.5S15.199,21,16.5,21z M6.5,21 C7.801,21,9,22.199,9,23.5S7.801,26,6.5,26S4,24.801,4,23.5S5.199,21,6.5,21z M0,4.239c3.312,3.125,7.188,4.437,14.25,4.437 S30,8.302,30,10.552c0,1.125-1.188,2.187-3.312,4.062c-2.063,1.875-6.063,5.25-6.063,5.25c0-0.937,5.688-5.812,5.688-7.312 c0-2-8.277-1.728-11.965-1.791C8.035,10.636,2.937,9.802,0,4.239z"/></svg>