<svg xmlns="http://www.w3.org/2000/svg"  viewBox="0 0 30 30" width="30px" height="30px"><path d="M 24 3.5 C 23.346 3.829 22.783219 4.1383906 22.199219 4.4003906 C 19.742219 5.5093906 17.110406 5.9263125 14.441406 6.1953125 C 13.048406 6.3353125 11.710469 6.6598906 10.480469 7.3378906 C 10.229469 7.4758906 9.9925781 7.7684844 9.6425781 7.5214844 C 9.2983201 7.2780091 9.4990421 6.9806424 9.5625 6.7011719 C 9.5626538 6.700493 9.5623468 6.6998972 9.5625 6.6992188 C 9.5973462 6.5453976 9.6174783 6.4011355 9.625 6.265625 C 9.6250382 6.2649253 9.6249625 6.264371 9.625 6.2636719 C 9.6323973 6.1283461 9.626508 6.0028841 9.6074219 5.8867188 C 9.6073141 5.8860679 9.6075305 5.8854159 9.6074219 5.8847656 C 9.5882094 5.7687524 9.5546389 5.6623991 9.5097656 5.5664062 C 9.5095299 5.5659041 9.5100021 5.5649547 9.5097656 5.5644531 C 9.4647338 5.4685393 9.4058489 5.3835947 9.3359375 5.3085938 C 9.0544618 5.0066266 8.5761764 4.8766244 7.9238281 4.9492188 C 7.8588281 4.9572187 7.7934687 4.9636094 7.7304688 4.9746094 C 6.9664688 5.1046094 6.5108125 5.7132656 6.6328125 6.4472656 C 6.7308125 7.0332656 7.0754844 7.473375 7.5214844 7.859375 C 7.6794844 7.996375 7.7624062 8.1199219 7.7695312 8.2480469 C 7.7765312 8.3761719 7.7078594 8.5095625 7.5683594 8.6640625 C 7.4833594 8.7570625 7.3772969 8.8320625 7.2792969 8.9140625 C 6.6936719 9.4046875 6.310625 9.9744629 6.1269531 10.625 C 6.0902188 10.754961 6.0617656 10.886969 6.0410156 11.023438 C 6.0409185 11.024075 6.0411124 11.024753 6.0410156 11.025391 C 5.9997545 11.297768 5.9895193 11.584242 6.0117188 11.882812 C 6.0117689 11.883493 6.0116682 11.884085 6.0117188 11.884766 C 6.0357864 12.207067 6.0890003 12.517849 6.1660156 12.820312 C 6.2431485 13.124013 6.3449383 13.416504 6.4667969 13.703125 C 6.4670384 13.703693 6.4665552 13.70451 6.4667969 13.705078 C 6.7101719 14.277078 7.0328437 14.819797 7.4023438 15.341797 C 8.2285738 16.509165 9.1944118 17.562596 10.208984 18.572266 C 10.547617 18.909262 10.889489 19.243193 11.236328 19.572266 C 12.542444 20.811651 13.737105 22.126903 14.740234 23.585938 C 14.740529 23.586366 14.73994 23.587462 14.740234 23.587891 C 15.07432 24.074028 15.388505 24.575439 15.677734 25.095703 C 15.678005 25.096189 15.677464 25.09717 15.677734 25.097656 C 15.936734 25.563656 16.185453 26.035906 16.439453 26.503906 L 16.550781 26.478516 C 16.550702 26.477878 16.55086 26.4772 16.550781 26.476562 C 16.52836 26.2962 16.520034 26.11036 16.503906 25.927734 C 16.503849 25.927084 16.503964 25.926431 16.503906 25.925781 C 16.487771 25.743827 16.460947 25.564447 16.402344 25.396484 C 16.401927 25.395289 16.402764 25.393773 16.402344 25.392578 C 16.230544 24.902149 16.026366 24.422262 15.830078 23.939453 C 15.829849 23.938889 15.830307 23.938064 15.830078 23.9375 C 15.731828 23.695812 15.636812 23.452844 15.546875 23.208984 C 15.457366 22.966286 15.372546 22.722145 15.300781 22.474609 C 15.300438 22.473425 15.301124 22.471888 15.300781 22.470703 C 15.209456 22.155805 15.101029 21.854953 14.974609 21.566406 C 14.974376 21.565874 14.974843 21.564986 14.974609 21.564453 C 14.848109 21.275939 14.702952 21.001242 14.535156 20.740234 C 14.534879 20.739804 14.535433 20.738712 14.535156 20.738281 C 14.367735 20.478036 14.175582 20.231744 13.960938 20 C 13.744327 19.766133 13.503402 19.547424 13.232422 19.34375 C 13.091797 19.238125 12.960174 19.127301 12.835938 19.011719 C 12.2152 18.434222 11.79022 17.738108 11.482422 16.974609 C 11.482194 16.974042 11.48265 16.973224 11.482422 16.972656 C 11.359281 16.667 11.255063 16.349141 11.164062 16.025391 C 10.959457 15.294658 10.656825 14.626101 10.152344 14.072266 C 9.9837071 13.887131 9.7919299 13.713723 9.5742188 13.556641 C 9.3087188 13.365391 9.156 13.101156 9.0644531 12.800781 C 9.0341196 12.701254 9.0108843 12.598269 8.9921875 12.492188 C 8.9920711 12.491526 8.9923033 12.490896 8.9921875 12.490234 C 8.9635443 12.327551 8.9537546 12.166407 8.9589844 12.009766 C 8.9590073 12.00911 8.9589609 12.008468 8.9589844 12.007812 C 8.9643843 11.849956 8.9844705 11.696547 9.0195312 11.546875 C 9.0196739 11.546268 9.0193882 11.545529 9.0195312 11.544922 C 9.0545683 11.395872 9.1043208 11.252176 9.1640625 11.113281 C 9.164291 11.112751 9.1638337 11.111858 9.1640625 11.111328 C 9.2239102 10.972444 9.2971068 10.839583 9.3769531 10.712891 C 9.3772361 10.712442 9.37667 10.711386 9.3769531 10.710938 C 9.4568889 10.584261 9.5454006 10.464008 9.640625 10.351562 C 9.6409313 10.351201 9.6403185 10.349971 9.640625 10.349609 C 9.9272658 10.011845 10.273894 9.7442068 10.613281 9.5722656 C 11.085281 9.3322656 11.597062 9.2232812 12.164062 9.3632812 C 11.970718 10.206641 11.785778 11.0417 11.634766 11.876953 C 11.634653 11.877574 11.634878 11.878285 11.634766 11.878906 C 11.559344 12.296209 11.492494 12.712449 11.4375 13.130859 C 11.382436 13.549292 11.338643 13.968806 11.310547 14.390625 C 11.310504 14.391272 11.31059 14.391931 11.310547 14.392578 C 11.73324 12.738785 12.158976 11.083935 12.597656 9.3671875 C 12.624802 9.3789297 12.64544 9.387221 12.671875 9.3984375 C 12.982372 9.5301118 13.242458 9.6347977 13.480469 9.7597656 C 13.516329 9.7785209 13.556972 9.7942915 13.591797 9.8144531 C 13.642797 9.8439531 13.691609 9.9088438 13.724609 9.9804688 C 13.756449 10.051025 13.774471 10.127632 13.763672 10.183594 C 13.76349 10.184646 13.763872 10.186461 13.763672 10.1875 C 13.401883 12.029242 13.013144 13.867236 12.650391 15.708984 C 12.650145 15.710236 12.650637 15.711639 12.650391 15.712891 C 12.610366 15.918667 12.588789 16.127809 12.572266 16.337891 C 12.572164 16.339183 12.572367 16.340504 12.572266 16.341797 C 12.555804 16.551889 12.543315 16.763444 12.523438 16.972656 C 12.523376 16.973302 12.523499 16.973964 12.523438 16.974609 C 12.544438 16.974609 12.565938 16.976562 12.585938 16.976562 C 12.586254 16.975343 12.585621 16.973876 12.585938 16.972656 C 13.166622 14.737876 13.747442 12.502312 14.328125 10.269531 C 14.935125 10.384531 15.473672 10.487844 16.013672 10.589844 C 15.704917 12.04753 15.38132 13.474399 15.101562 14.910156 C 15.101321 14.911399 15.101804 14.91282 15.101562 14.914062 C 14.961764 15.632305 14.810362 16.351356 14.695312 17.074219 C 14.695212 17.074851 14.695413 17.07554 14.695312 17.076172 C 14.637822 17.437601 14.587598 17.799191 14.554688 18.164062 C 14.521611 18.529558 14.505918 18.897104 14.509766 19.267578 C 14.509779 19.268887 14.509751 19.270175 14.509766 19.271484 C 14.569766 19.242484 14.598422 19.205063 14.607422 19.164062 C 14.607563 19.163442 14.607281 19.16273 14.607422 19.162109 C 14.715141 18.68685 14.815716 18.210263 14.919922 17.734375 C 14.920193 17.733138 14.919651 17.731706 14.919922 17.730469 C 15.024151 17.254581 15.135174 16.779391 15.259766 16.308594 C 15.260087 16.307381 15.259444 16.3059 15.259766 16.304688 C 15.750444 14.4519 16.27725 12.607509 16.794922 10.761719 C 16.808422 10.713219 16.832859 10.652891 16.865234 10.603516 C 16.897609 10.554141 16.936563 10.515859 16.976562 10.505859 C 17.483562 10.378859 17.998687 10.280062 18.554688 10.164062 C 18.354993 11.029664 18.157384 11.854858 17.972656 12.681641 C 17.97252 12.68225 17.972792 12.682984 17.972656 12.683594 C 17.78681 13.513977 17.610552 14.346356 17.429688 15.177734 C 17.429417 15.178977 17.429958 15.180398 17.429688 15.181641 C 17.251936 16.000398 17.066271 16.818916 16.894531 17.638672 C 16.894271 17.639918 16.894792 17.641332 16.894531 17.642578 C 16.719785 18.475328 16.542353 19.307787 16.392578 20.144531 C 16.392353 20.145787 16.392803 20.147182 16.392578 20.148438 C 16.245909 20.969187 16.131709 21.795412 16.003906 22.619141 C 16.003808 22.619777 16.004005 22.620458 16.003906 22.621094 C 16.043906 22.628094 16.085953 22.635578 16.126953 22.642578 C 16.127202 22.642028 16.126702 22.641174 16.126953 22.640625 C 16.145907 22.599251 16.172738 22.561968 16.183594 22.519531 C 16.183903 22.518307 16.183285 22.516849 16.183594 22.515625 C 16.725439 20.366237 17.252678 18.213753 17.8125 16.068359 C 17.812658 16.067752 17.812342 16.067014 17.8125 16.066406 C 18.302342 14.187014 18.822784 12.315708 19.349609 10.445312 C 19.34977 10.444744 19.349449 10.443929 19.349609 10.443359 C 19.40029 10.263494 19.452272 10.061145 19.523438 9.8769531 C 19.559313 9.7843906 19.599406 9.6954531 19.648438 9.6171875 C 19.64871 9.6167519 19.648164 9.6156694 19.648438 9.6152344 C 19.697283 9.537512 19.755141 9.4714196 19.822266 9.4179688 C 20.068891 9.2214196 20.302956 9.0154688 20.527344 8.8046875 C 20.751422 8.5945352 20.964156 8.3779688 21.167969 8.1542969 C 21.372138 7.9300222 21.566206 7.6999064 21.751953 7.4628906 C 21.937406 7.226457 22.114203 6.9847656 22.283203 6.7363281 C 22.452519 6.4873317 22.612861 6.232899 22.767578 5.9726562 C 22.922031 5.7129727 23.069125 5.4479062 23.210938 5.1777344 C 23.494563 4.6373438 23.7555 4.07775 24 3.5 z"/></svg>